<svg id="Layer_1" enable-background="new 0 0 512.002 512.002" height="512" viewBox="0 0 512.002 512.002" width="512" xmlns="http://www.w3.org/2000/svg"><g><g><path d="m482.002 433.001h-452.002c-16.569 0-30-13.431-30-30v-294c0-16.569 13.431-30 30-30h452.002c16.569 0 30 13.431 30 30v294c0 16.569-13.432 30-30 30z" fill="#fff4f4"/></g><path d="m482.002 79.001h-226.001v354h226.001c16.569 0 30-13.431 30-30v-294c0-16.569-13.431-30-30-30z" fill="#f6efea"/><g><path d="m117.574 289.001c-31.745 0-57.572-25.827-57.572-57.573 0-13.141 7.378-31.779 21.928-55.398 5.016-8.142 10.463-16.1 15.338-22.409 6.614-8.561 11.943-14.62 20.307-14.62s13.692 6.06 20.307 14.62c4.875 6.309 10.322 14.267 15.338 22.409 14.551 23.619 21.929 42.258 21.929 55.398-.002 31.746-25.829 57.573-57.575 57.573z" fill="#ff8856"/></g><g><path d="m436.995 169.001h-216.998c-8.284 0-15-6.716-15-15s6.716-15 15-15h216.998c8.284 0 15 6.716 15 15s-6.716 15-15 15z" fill="#00429d"/></g><g><path d="m436.995 229.001h-216.993c-8.284 0-15-6.716-15-15s6.716-15 15-15h216.993c8.284 0 15 6.716 15 15s-6.716 15-15 15z" fill="#00429d"/></g><g><path d="m343.002 289.001h-122.999c-8.284 0-15-6.716-15-15s6.716-15 15-15h122.999c8.284 0 15 6.716 15 15s-6.716 15-15 15z" fill="#00429d"/></g><g><circle clip-rule="evenodd" cx="75.002" cy="358.001" fill="#7dd5f4" fill-rule="evenodd" r="15"/></g><g><circle clip-rule="evenodd" cx="135.002" cy="358.001" fill="#bee75e" fill-rule="evenodd" r="15"/></g><g><circle clip-rule="evenodd" cx="195.002" cy="358.001" fill="#fdbf00" fill-rule="evenodd" r="15"/></g><g><circle clip-rule="evenodd" cx="437.002" cy="358.001" fill="#00cb75" fill-rule="evenodd" r="15"/></g><g fill="#00347b"><path d="m436.995 139.001h-180.994v30h180.994c8.284 0 15-6.716 15-15s-6.716-15-15-15z"/><path d="m436.995 199.001h-180.994v30h180.994c8.284 0 15-6.716 15-15s-6.716-15-15-15z"/><path d="m343.002 259.001h-87.001v30h87.001c8.284 0 15-6.716 15-15s-6.716-15-15-15z"/></g></g></svg>